<?xml version="1.0" encoding="UTF-8"?>
<svg width="1200" height="600" xmlns="http://www.w3.org/2000/svg">
  <g fill="#4A89DC" stroke="#FFFFFF" stroke-width="0.5">
    <!-- Africa -->
    <path d="M598,263 L590,283 L594,310 L605,328 L593,350 L595,367 L591,382 L582,385 L576,398 L573,410 L568,419 L570,432 L566,448 L559,458 L557,468 L547,468 L540,477 L535,487 L525,487 L518,483 L510,488 L504,483 L495,483 L488,473 L480,470 L472,468 L462,460 L455,460 L446,456 L437,445 L436,436 L426,426 L416,426 L414,430 L405,430 L400,418 L400,408 L392,400 L388,405 L378,405 L372,410 L355,403 L345,403 L340,408 L336,417 L326,425 L314,425 L310,421 L304,421 L300,431 L294,431 L288,420 L298,410 L306,410 L306,400 L300,390 L300,378 L305,370 L312,370 L320,360 L320,352 L337,342 L352,342 L360,337 L362,329 L360,320 L365,310 L366,302 L375,302 L377,294 L380,290 L383,282 L381,276 L384,270 L395,270 L400,262 L410,262 L420,268 L430,268 L444,275 L450,284 L460,290 L465,300 L473,300 L480,292 L486,292 L490,298 L496,297 L500,289 L514,287 L522,290 L522,300 L529,300 L535,290 L545,290 L556,282 L566,282 L580,270 L585,270 L598,263 Z"/>
    <!-- Europe -->
    <path d="M467,186 L473,180 L480,180 L486,174 L492,174 L498,180 L510,180 L517,186 L524,186 L534,176 L534,168 L545,168 L555,158 L565,158 L575,148 L575,138 L590,130 L600,130 L600,120 L606,114 L606,106 L598,98 L598,90 L590,85 L583,85 L578,90 L570,90 L561,94 L550,94 L550,86 L545,80 L536,80 L529,86 L521,86 L514,93 L514,100 L506,108 L498,108 L486,115 L486,122 L495,132 L500,141 L500,152 L490,162 L490,166 L478,166 L465,176 L467,186 Z"/>
    <!-- Asia -->
    <path d="M600,120 L610,120 L620,110 L630,110 L635,115 L643,115 L650,108 L658,108 L665,114 L674,114 L680,107 L690,107 L700,97 L716,97 L720,93 L730,93 L740,83 L750,83 L760,73 L770,73 L780,63 L783,63 L783,71 L792,80 L792,90 L800,98 L810,98 L810,108 L816,114 L816,124 L824,124 L830,130 L830,135 L822,143 L822,150 L830,158 L830,164 L838,172 L838,180 L848,190 L848,196 L861,196 L861,208 L854,215 L854,224 L863,224 L863,234 L856,241 L856,255 L847,255 L847,265 L837,265 L837,280 L828,280 L828,290 L818,290 L818,300 L812,306 L804,306 L804,318 L795,318 L795,328 L785,328 L785,336 L777,336 L777,345 L788,345 L788,353 L794,353 L794,367 L784,367 L784,380 L774,380 L769,375 L762,375 L762,364 L753,364 L753,350 L743,350 L743,365 L738,370 L732,370 L732,360 L723,360 L723,347 L715,347 L715,339 L708,339 L708,330 L700,330 L700,320 L690,320 L690,310 L680,310 L671,319 L666,319 L663,316 L656,316 L652,320 L647,320 L647,330 L642,335 L632,335 L632,325 L622,325 L622,320 L613,320 L608,325 L608,335 L600,335 L596,331 L594,331 L594,310 L590,283 L598,263 L585,270 L580,270 L566,282 L556,282 L545,290 L535,290 L529,300 L522,300 L522,290 L514,287 L500,289 L496,297 L490,298 L486,292 L480,292 L473,300 L465,300 L460,290 L450,284 L444,275 L430,268 L420,268 L410,262 L400,262 L395,270 L384,270 L381,276 L383,282 L380,290 L377,294 L375,302 L366,302 L365,310 L360,320 L362,329 L360,337 L352,342 L337,342 L320,352 L320,360 L312,370 L305,370 L300,378 L300,390 L306,400 L306,410 L298,410 L288,420 L280,420 L280,412 L272,412 L272,405 L264,405 L264,397 L256,397 L256,390 L248,390 L248,382 L240,382 L240,373 L235,373 L235,365 L225,365 L225,357 L217,357 L217,349 L210,349 L210,340 L202,340 L202,332 L193,332 L193,325 L186,320 L178,320 L178,312 L171,307 L164,307 L164,300 L155,300 L155,290 L150,290 L150,281 L144,281 L144,273 L138,273 L138,265 L130,265 L130,257 L123,257 L123,249 L115,249 L115,240 L107,240 L107,232 L102,232 L102,225 L93,225 L93,216 L86,216 L86,207 L78,207 L78,198 L73,198 L73,191 L64,191 L64,182 L59,182 L59,175 L50,175 L50,166 L45,166 L45,158 L36,158 L36,149 L31,149 L31,142 L22,142 L22,133 L14,133 L14,124 L22,124 L22,134 L31,134 L31,144 L40,144 L40,154 L50,154 L50,145 L60,145 L60,154 L69,154 L69,164 L78,164 L78,155 L88,155 L88,164 L96,164 L96,155 L106,155 L106,146 L116,146 L116,140 L125,140 L125,130 L135,130 L135,140 L144,140 L144,150 L154,150 L154,141 L164,141 L164,150 L173,150 L173,141 L183,141 L183,135 L193,135 L193,125 L202,125 L202,134 L212,134 L212,125 L222,125 L222,134 L232,134 L232,125 L241,125 L241,135 L251,135 L251,145 L261,145 L261,135 L271,135 L271,125 L280,125 L280,133 L290,133 L290,125 L300,125 L300,117 L310,117 L310,125 L319,125 L319,134 L329,134 L329,125 L339,125 L339,134 L349,134 L349,125 L358,125 L358,117 L368,117 L368,125 L378,125 L378,117 L387,117 L387,108 L397,108 L397,117 L408,117 L408,125 L416,125 L416,134 L425,134 L425,125 L435,125 L435,116 L445,116 L445,125 L455,125 L455,134 L464,134 L464,125 L474,125 L474,116 L484,116 L484,125 L494,125 L494,134 L504,134 L504,127 L512,127 L512,134 L521,134 L521,143 L532,143 L532,134 L541,134 L541,143 L550,143 L550,153 L560,153 L560,145 L571,145 L571,152 L580,152 L580,160 L590,160 L590,152 L600,152 L600,143 L610,143 L610,134 L600,134 L600,120 Z"/>
    <!-- North America -->
    <path d="M160,60 L170,60 L180,70 L190,70 L200,80 L210,80 L220,90 L230,90 L240,100 L250,100 L260,110 L270,110 L280,120 L290,120 L300,120 L300,130 L310,130 L310,140 L320,140 L320,150 L310,150 L310,160 L300,160 L300,170 L290,170 L290,180 L280,180 L280,190 L270,190 L270,200 L260,200 L260,210 L250,210 L240,200 L230,200 L220,190 L210,190 L200,180 L190,180 L180,170 L170,170 L160,160 L150,160 L140,150 L130,150 L120,140 L110,140 L100,140 L100,130 L110,130 L110,120 L120,120 L120,110 L130,110 L130,100 L140,100 L140,90 L150,90 L150,80 L160,80 L160,60 Z"/>
    <!-- South America -->
    <path d="M270,290 L280,290 L290,300 L300,300 L310,310 L320,310 L330,320 L340,320 L350,330 L360,330 L370,340 L370,350 L360,350 L360,360 L350,360 L350,370 L340,370 L340,380 L330,380 L330,390 L320,390 L320,400 L310,400 L310,410 L300,410 L300,420 L290,420 L290,430 L280,430 L280,440 L270,440 L270,450 L260,450 L260,460 L250,460 L240,450 L230,450 L220,440 L210,440 L200,430 L190,430 L180,420 L170,420 L160,410 L150,410 L140,400 L130,400 L120,390 L110,390 L100,380 L100,370 L110,370 L110,360 L120,360 L120,350 L130,350 L130,340 L140,340 L140,330 L150,330 L150,320 L160,320 L160,310 L170,310 L170,300 L180,300 L180,290 L190,290 L190,280 L200,280 L200,270 L210,270 L210,280 L220,280 L220,290 L230,290 L230,300 L240,300 L240,310 L250,310 L250,300 L260,300 L260,290 L270,290 Z"/>
    <!-- Australia -->
    <path d="M800,380 L810,380 L820,390 L830,390 L840,400 L850,400 L860,410 L870,410 L880,420 L890,420 L900,430 L910,430 L920,440 L930,440 L940,450 L950,450 L960,460 L960,470 L950,470 L950,480 L940,480 L940,490 L930,490 L930,500 L920,500 L920,510 L910,510 L910,520 L900,520 L900,530 L890,530 L890,520 L880,520 L880,510 L870,510 L870,500 L860,500 L860,490 L850,490 L850,480 L840,480 L840,470 L830,470 L830,460 L820,460 L820,450 L810,450 L810,440 L800,440 L800,430 L790,430 L790,420 L780,420 L780,410 L770,410 L770,400 L780,400 L780,390 L790,390 L790,380 L800,380 Z"/>
  </g>
</svg> 