<?xml version="1.0" encoding="UTF-8"?>
<svg width="1000" height="500" viewBox="0 0 1000 500" xmlns="http://www.w3.org/2000/svg">
  <!-- Background -->
  <rect x="0" y="0" width="1000" height="500" fill="#203354" />
  
  <!-- World Map (Simplified but Recognizable) -->
  <g fill="#3B82F6" stroke="#ffffff" stroke-width="0.5">
    <!-- North America -->
    <path d="M118,162 L125,158 L134,155 L142,151 L150,147 L162,147 L178,144 L192,142 L201,138 L212,132 L224,126 L234,121 L245,118 L255,109 L265,102 L275,96 L285,91 L296,86 L306,82 L316,78 L323,73 L330,71 L336,78 L337,85 L339,94 L341,102 L343,109 L347,114 L351,119 L354,125 L356,130 L361,137 L364,142 L368,148 L370,154 L373,160 L378,166 L381,170 L383,175 L388,180 L390,186 L392,192 L394,197 L395,203 L399,208 L401,214 L405,219 L408,223 L410,229 L419,230 L429,231 L418,239 L407,247 L392,256 L382,262 L370,267 L361,273 L351,279 L341,286 L331,291 L323,297 L315,304 L306,310 L298,318 L290,324 L282,330 L275,338 L267,343 L258,348 L246,352 L237,346 L224,342 L215,339 L207,333 L199,327 L189,322 L179,318 L171,313 L163,308 L155,302 L147,297 L139,291 L136,281 L134,270 L130,261 L127,251 L123,242 L120,233 L116,223 L113,213 L111,203 L107,193 L104,184 L99,176 L95,167 L98,159 L104,164 L111,171 L117,163 Z" />

    <!-- South America -->
    <path d="M290,324 L290,334 L291,344 L293,354 L294,364 L295,374 L294,384 L294,394 L293,404 L293,414 L292,424 L290,434 L289,444 L295,450 L302,457 L310,464 L318,470 L328,476 L336,478 L346,474 L354,469 L360,462 L366,456 L372,450 L376,441 L381,433 L385,424 L390,417 L396,410 L401,402 L407,395 L411,387 L416,380 L420,372 L423,363 L425,354 L428,346 L430,338 L431,328 L432,318 L431,308 L430,298 L425,290 L420,284 L411,279 L402,282 L394,287 L386,293 L378,298 L368,304 L357,310 L348,316 L339,320 L330,324 L317,328 L304,329 L290,324 Z" />

    <!-- Europe -->
    <path d="M499,147 L500,137 L496,128 L492,119 L485,112 L477,107 L468,105 L460,101 L452,95 L444,91 L437,86 L431,78 L425,70 L420,62 L414,55 L408,50 L403,41 L415,36 L426,32 L435,27 L444,23 L455,20 L466,18 L476,21 L485,24 L494,28 L504,32 L513,35 L522,38 L530,42 L538,45 L546,48 L555,52 L562,57 L570,61 L578,65 L587,70 L593,75 L597,83 L600,91 L602,99 L603,108 L604,117 L605,127 L605,136 L605,144 L593,146 L583,147 L571,148 L560,150 L551,151 L541,153 L530,154 L519,154 L509,152 L499,147 Z" />

    <!-- Africa -->
    <path d="M501,147 L502,157 L504,167 L506,177 L508,187 L511,197 L513,207 L515,217 L516,227 L517,237 L517,247 L518,257 L519,267 L520,277 L521,287 L522,297 L523,307 L524,317 L525,327 L528,337 L532,346 L536,354 L541,361 L548,367 L557,372 L566,377 L575,379 L584,377 L592,371 L599,364 L603,355 L607,346 L610,337 L613,329 L617,320 L621,311 L625,302 L629,293 L632,285 L636,275 L638,265 L640,255 L641,245 L642,235 L644,225 L645,215 L643,205 L638,195 L633,186 L626,178 L617,171 L609,165 L601,158 L593,152 L584,147 L575,143 L566,140 L557,137 L547,134 L536,133 L526,132 L516,132 L508,136 L501,142 L499,147 Z" />

    <!-- Asia -->
    <path d="M605,144 L615,144 L625,143 L635,142 L645,140 L654,138 L664,134 L675,131 L684,127 L694,123 L703,119 L712,115 L720,109 L728,104 L737,99 L746,94 L754,88 L763,83 L772,78 L780,72 L788,67 L796,62 L805,57 L813,52 L821,47 L828,42 L837,37 L845,33 L853,29 L861,25 L867,21 L874,19 L880,25 L885,32 L889,38 L892,45 L892,54 L891,63 L889,72 L886,81 L882,89 L878,98 L873,106 L868,114 L865,124 L863,133 L861,142 L859,151 L856,161 L854,170 L851,178 L847,187 L843,195 L838,204 L833,213 L828,220 L822,227 L814,233 L807,239 L799,244 L792,250 L786,257 L783,265 L780,274 L777,282 L771,289 L762,291 L754,294 L747,298 L741,306 L736,313 L731,318 L725,325 L718,331 L711,336 L703,342 L695,347 L687,353 L678,358 L671,364 L664,371 L657,378 L651,385 L645,390 L637,390 L629,384 L624,376 L622,367 L624,358 L625,350 L627,341 L629,333 L630,324 L629,314 L625,307 L622,299 L620,289 L619,280 L614,272 L609,265 L604,258 L598,250 L592,244 L587,238 L583,230 L581,221 L580,211 L579,202 L580,192 L582,184 L584,175 L587,166 L589,158 L593,149 L597,144 L603,142 Z" />

    <!-- Australia -->
    <path d="M836,320 L836,328 L836,336 L836,344 L836,352 L835,360 L834,368 L832,376 L828,383 L823,390 L818,396 L811,402 L804,407 L797,413 L790,418 L781,422 L773,424 L764,426 L754,425 L746,422 L739,418 L734,410 L728,404 L724,396 L722,388 L722,380 L722,372 L723,364 L727,356 L732,348 L738,342 L745,337 L753,332 L761,328 L770,323 L779,320 L788,316 L797,314 L806,313 L815,312 L824,313 L833,317 L836,320 Z" />

    <!-- Greenland -->
    <path d="M485,24 L492,19 L499,15 L506,11 L512,8 L519,5 L526,3 L533,2 L539,4 L545,8 L549,14 L553,20 L556,26 L559,32 L561,39 L562,45 L560,52 L556,59 L551,65 L545,70 L538,74 L531,78 L523,82 L515,84 L507,81 L499,77 L493,71 L488,65 L484,58 L480,51 L480,44 L483,37 L487,30 L493,25 Z" />

    <!-- Antarctica (just a hint at the bottom) -->
    <path d="M200,495 L250,492 L300,490 L350,488 L400,487 L450,486 L500,485 L550,486 L600,487 L650,488 L700,490 L750,492 L800,495" stroke-width="1" fill="none" />
  </g>

  <!-- Grid lines -->
  <g stroke="#ffffff" stroke-width="0.2" opacity="0.3">
    <!-- Longitude lines -->
    <line x1="100" y1="0" x2="100" y2="500" />
    <line x1="200" y1="0" x2="200" y2="500" />
    <line x1="300" y1="0" x2="300" y2="500" />
    <line x1="400" y1="0" x2="400" y2="500" />
    <line x1="500" y1="0" x2="500" y2="500" />
    <line x1="600" y1="0" x2="600" y2="500" />
    <line x1="700" y1="0" x2="700" y2="500" />
    <line x1="800" y1="0" x2="800" y2="500" />
    <line x1="900" y1="0" x2="900" y2="500" />
    
    <!-- Latitude lines -->
    <line x1="0" y1="100" x2="1000" y2="100" />
    <line x1="0" y1="200" x2="1000" y2="200" />
    <line x1="0" y1="300" x2="1000" y2="300" />
    <line x1="0" y1="400" x2="1000" y2="400" />
  </g>
</svg> 